<?xml version="1.0" encoding="UTF-8"?>
<svg width="100px" height="100px" viewBox="0 0 100 100" version="1.1" xmlns="http://www.w3.org/2000/svg" xmlns:xlink="http://www.w3.org/1999/xlink">
    <title>编组 9</title>
    <defs>
        <linearGradient x1="50%" y1="0%" x2="50%" y2="100%" id="linearGradient-1">
            <stop stop-color="#4795E7" offset="0%"></stop>
            <stop stop-color="#4AB0FF" offset="100%"></stop>
        </linearGradient>
    </defs>
    <g id="页面-1" stroke="none" stroke-width="1" fill="none" fill-rule="evenodd">
        <g id="画板" transform="translate(-333, -151)">
            <g id="编组-9" transform="translate(333, 151)">
                <circle id="椭圆形备份-4" fill="url(#linearGradient-1)" cx="50" cy="50" r="50"></circle>
                <g id="qiapian" transform="translate(25, 30)" fill="#FFFFFF" fill-rule="nonzero">
                    <path d="M50,6.08137928 C50,2.7227586 47.1208333,-8.82053051e-16 43.5708333,-8.82053051e-16 L6.43055557,-8.82053051e-16 C2.87916665,-8.82053051e-16 0,2.7227586 0,6.08137928 L0,33.9172414 C0,37.2772413 2.87916665,40 6.42916665,40 L43.5694444,40 C47.1208333,40 50,37.2772413 50,33.9186207 L50,6.08275862 L50,6.08137928 Z M6.42916665,4.05379309 L43.5694444,4.05379309 C44.7486111,4.05379309 45.7125,4.96689653 45.7125,6.08137928 L45.7125,11.0137931 L4.28611113,11.0137931 L4.28611113,6.08137928 C4.28611113,4.96689653 5.25,4.05379309 6.42916665,4.05379309 Z M43.5694444,35.9462069 L6.43055557,35.9462069 C5.25138892,35.9462069 4.2875,35.0331034 4.2875,33.9186207 L4.2875,15.0675862 L45.7152778,15.0675862 L45.7152778,33.9186207 C45.7152778,35.0331034 44.7513889,35.9462069 43.5722222,35.9462069 L43.5694444,35.9462069 Z M18.7125,26.7572414 L9,26.7572414 C7.81388887,26.7572414 6.85694443,27.662069 6.85694443,28.7848276 C6.85694443,29.9048276 7.81527778,30.8110345 9,30.8110345 L18.7138889,30.8110345 C19.9,30.8110345 20.8569444,29.9048276 20.8569444,28.7834482 C20.8569444,27.6620689 19.9,26.755862 18.7138889,26.755862 L18.7125,26.7572414 Z" id="形状"></path>
                </g>
            </g>
        </g>
    </g>
</svg>