<svg xmlns="http://www.w3.org/2000/svg" xmlns:xlink="http://www.w3.org/1999/xlink" width="424" height="256" viewBox="0 0 424 256" fill="none">
<path d="M212 139.195C95.4858 139.195 1 209.248 1 255.195L423 255.195C423 209.248 328.514 139.195 212 139.195Z"   fill="url(#linear_0)" >
</path>
<rect x="323.5" y="92.19537353515625" width="33" height="83"   fill="url(#linear_1)" >
</rect>
<g opacity="0.2">
<path d="M364.741 76.648C363.981 77.157 363.5 78.103 363.5 79.133C363.5 80.714 364.61 82 365.976 82L380.165 82C381.497 82 382.5 80.768 382.5 79.133C382.5 77.748 381.788 76.641 380.741 76.345C380.477 74.863 379.346 73.777 378.016 73.777C377.623 73.777 377.235 73.873 376.882 74.057C376.213 72.779 375.029 72 373.72 72C371.678 72 370.017 73.923 370.017 76.288C367.264 75.312 365.501 76.139 364.741 76.648Z"   fill="#CDD6E0" >
</path>
</g>
<g opacity="0.3">
<path d="M93.4275 33C95.18 33 96.5 31.3984 96.5 29.2729C96.5 27.4724 95.5625 26.0333 94.185 25.6485C93.8375 23.7219 92.35 22.3101 90.6 22.3101C90.0825 22.3101 89.5725 22.4349 89.1075 22.6741C88.2275 21.0127 86.67 20 84.9475 20C82.26 20 80.075 22.4999 80.075 25.5744C76.4525 24.3056 74.1325 25.3807 73.1325 26.0424C72.1325 26.7041 71.5 27.9339 71.5 29.2729C71.5 31.3282 72.96 33 74.7575 33L93.4275 33Z"   fill="#CDD6E0" >
</path>
</g>
<rect x="96.5" y="44" width="33" height="103"   fill="url(#linear_2)" >
</rect>
<rect x="65.5" y="102" width="20" height="63"   fill="url(#linear_3)" >
</rect>
<path d="M131.5 176.213C226.47 253.799 313.783 217.532 313.783 217.532L289.503 176.117L131.5 176.213Z"   fill="url(#linear_4)" >
</path>
<path d="M208.5 116.857L131.5 132.062L131.5 80.0599L208.5 65.1954L289.922 77.1964L289.499 120.195L208.5 111.082L208.5 116.857Z" fill-rule="evenodd"  fill="url(#linear_5)" >
</path>
<path   fill="url(#linear_6)"  d="M185.575 91.4225M185.575 91.4225Q185.999 90.3924 186.765 88.7844L187.196 87.8817L189.001 88.7424L188.571 89.6451Q187.828 91.2037 187.425 92.1832L187.045 93.108L185.195 92.3474L185.575 91.4225ZM188.503 85.3527M188.503 85.3527Q189.252 83.9564 190.026 82.6449L190.535 81.7839L192.257 82.801L191.748 83.6621Q190.995 84.9381 190.265 86.2982L189.792 87.1794L188.03 86.234L188.503 85.3527ZM192.381 78.948M192.381 78.948Q193.305 77.6082 194.234 76.432L194.854 75.6473L196.423 76.8871L195.804 77.6718Q194.915 78.7971 194.027 80.0835L193.46 80.9067L191.813 79.7712L192.381 78.948ZM196.974 73.334M196.974 73.334Q198.148 72.1647 199.316 71.275L200.112 70.6689L201.324 72.2598L200.528 72.8658Q199.466 73.6754 198.385 74.7513L197.676 75.4568L196.265 74.0395L196.974 73.334ZM203.009 69.1562M203.009 69.1562Q204.656 68.5253 206.272 68.4732L207.272 68.441L207.336 70.4399L206.337 70.4722Q205.057 70.5134 203.725 71.0238L202.791 71.3815L202.075 69.5138L203.009 69.1562ZM210.663 69.123M210.663 69.123Q212.799 69.8914 213.482 71.4591L213.881 72.3759L212.048 73.1747L211.648 72.2579Q211.31 71.4813 209.986 71.005L209.045 70.6665L209.722 68.7846L210.663 69.123ZM212.182 76.1892M212.182 76.1892Q211.052 77.3593 209.418 78.0982L208.507 78.5103L207.683 76.6881L208.594 76.2759Q209.879 75.6946 210.744 74.7995L211.439 74.0803L212.877 75.4701L212.182 76.1892ZM204.956 79.046M204.956 79.046Q203.055 79.032 201.581 78.3016L200.685 77.8575L201.573 76.0655L202.469 76.5095Q203.53 77.0354 204.971 77.0461L205.971 77.0535L205.956 79.0534L204.956 79.046ZM198.68 74.6546M198.68 74.6546Q198.318 73.0706 198.773 71.1323L199.001 70.1587L200.948 70.6153L200.72 71.5889Q200.371 73.0764 200.63 74.2088L200.853 75.1836L198.903 75.6295L198.68 74.6546ZM200.346 67.2201M200.346 67.2201Q201.025 65.9774 201.917 64.6941L202.488 63.8729L204.13 65.0143L203.559 65.8354Q202.729 67.0307 202.101 68.1794L201.621 69.0569L199.866 68.0976L200.346 67.2201ZM204.592 61.2999M204.592 61.2999Q205.53 60.2341 206.584 59.1728L207.289 58.4635L208.708 59.8734L208.003 60.5826Q206.991 61.6008 206.094 62.6209L205.433 63.3717L203.932 62.0507L204.592 61.2999ZM209.602 56.3566M209.602 56.3566Q210.761 55.3494 212.004 54.3709L212.79 53.7525L214.027 55.3242L213.241 55.9426Q212.036 56.8911 210.914 57.8663L210.159 58.5222L208.847 57.0125L209.602 56.3566ZM215.2 52.0025M215.2 52.0025Q216.457 51.1244 217.768 50.2876L218.611 49.7496L219.687 51.4355L218.844 51.9735Q217.568 52.7879 216.345 53.6421L215.526 54.2147L214.38 52.5751L215.2 52.0025ZM221.282 48.1752M221.282 48.1752Q222.585 47.4378 223.92 46.7481L224.809 46.2892L225.727 48.0662L224.838 48.5251Q223.537 49.1973 222.267 49.9159L221.396 50.4084L220.411 48.6676L221.282 48.1752ZM227.593 44.9695M227.593 44.9695Q228.848 44.401 230.12 43.8781L231.044 43.4976L231.805 45.3471L230.88 45.7276Q229.642 46.2373 228.418 46.7914L227.507 47.2039L226.682 45.382L227.593 44.9695Z">
</path>
<path     fill="url(#linear_7)"  d="M213.5 197.062L289.5 176.122L289.5 77.0624L213.5 98.0024L213.5 197.062Z">
</path>
<path     fill="url(#linear_8)"  d="M213.5 197.062L289.5 176.122L289.5 77.0624L213.5 98.0024L213.5 197.062Z">
</path>
<g mask="url(#mask-0)" opacity="0.4">
<rect x="244.5" y="77.19537353515625" width="18" height="120"   fill="#EDF0F5" >
</rect>
</g>
<g mask="url(#mask-0)">
<path d="M230.675 145.961L298.02 124.311L295.502 89.1954L213.5 97.7159L230.675 145.961Z"   fill="url(#linear_9)" >
</path>
</g>
<path d="M131.5 176.213L213.5 197.062L213.5 97.5539L131.5 80.0624L131.5 176.213Z"   fill="url(#linear_10)" >
</path>
<g mask="url(#mask-1)" opacity="0.6">
<rect x="160.5" y="77.19537353515625" width="18" height="120"   fill="#F6F8FB" >
</rect>
</g>
<g mask="url(#mask-1)">
<path d="M131.5 90.1076L131.5 126.679L203.004 143.255L213.5 97.7184L131.5 90.1076Z"   fill="url(#linear_11)" >
</path>
</g>
<path d="M113.5 114.504L198.8 134.062L213.5 97.553L131.5 80.0624L113.5 114.504Z"   fill="#F6F8FA" >
</path>
<path d="M237.013 136.195L310.5 112.253L289.926 77.1954L213.5 97.5504L237.013 136.195Z" fill-rule="evenodd"  fill="url(#linear_12)" >
</path>
<path d="M242.8 42.5459L252.406 38.5831L250.578 34.0945L242.8 42.5459Z"   fill="#C3CBD5" >
</path>
<path d="M250.019 33.8154L254.716 46.5858L276.433 17.8714L250.019 33.8154Z"   fill="#EAEFF5" >
</path>
<path d="M239.452 24.3641L242.799 42.5457L250.579 34.0962L276.433 17.8714L239.452 24.3641Z"   fill="#D8DFE8" >
</path>
<path d="M227.991 20.4841L239.73 25.4671L276.433 17.8714L227.991 20.4841Z"   fill="#EAEFF5" >
</path>
<defs>
<linearGradient id="linear_0" x1="50%" y1="0%" x2="51%" y2="100%" gradientUnits="objectBoundingBox">
<stop offset="0" stop-color="#F2F4F7"  />
<stop offset="1" stop-color="#FFFFFF" stop-opacity="0" />
</linearGradient>
<linearGradient id="linear_1" x1="50%" y1="0%" x2="51%" y2="100%" gradientUnits="objectBoundingBox">
<stop offset="0" stop-color="#F2F4F7"  />
<stop offset="1" stop-color="#FFFFFF" stop-opacity="0" />
</linearGradient>
<linearGradient id="linear_2" x1="50%" y1="0%" x2="51%" y2="100%" gradientUnits="objectBoundingBox">
<stop offset="0" stop-color="#F2F4F7"  />
<stop offset="1" stop-color="#FFFFFF" stop-opacity="0" />
</linearGradient>
<linearGradient id="linear_3" x1="50%" y1="0%" x2="51%" y2="100%" gradientUnits="objectBoundingBox">
<stop offset="0" stop-color="#F2F4F7"  />
<stop offset="1" stop-color="#FFFFFF" stop-opacity="0" />
</linearGradient>
<linearGradient id="linear_4" x1="50.00009600628233%" y1="0%" x2="51.00009600628233%" y2="106.18578027689898%" gradientUnits="objectBoundingBox">
<stop offset="0" stop-color="#EEF0F6"  />
<stop offset="1" stop-color="#FFFFFF" stop-opacity="0" />
</linearGradient>
<linearGradient id="linear_5" x1="50.000017999704085%" y1="0%" x2="51.000017999704085%" y2="54.326211532706914%" gradientUnits="objectBoundingBox">
<stop offset="0" stop-color="#F1F4F7"  />
<stop offset="1" stop-color="#D0D8E2"  />
</linearGradient>
<linearGradient id="linear_6" x1="113.13660993326326%" y1="2.631056986346433%" x2="2.8001648556644034%" y2="106.45192495004716%" gradientUnits="objectBoundingBox">
<stop offset="0" stop-color="#D6DEE7"  />
<stop offset="0.521484375" stop-color="#F9FAFC"  />
<stop offset="1" stop-color="#F0F3F6"  />
</linearGradient>
<linearGradient id="linear_7" x1="50%" y1="12.037277337631359%" x2="51%" y2="100%" gradientUnits="objectBoundingBox">
<stop offset="0" stop-color="#DAE1E9"  />
<stop offset="1" stop-color="#BBC7D4"  />
</linearGradient>
<linearGradient id="linear_8" x1="87.45888280923282%" y1="6.746063123915214%" x2="15.5087031049149%" y2="100%" gradientUnits="objectBoundingBox">
<stop offset="0" stop-color="#E0E6ED"  />
<stop offset="1" stop-color="#BCC8D5"  />
</linearGradient>
<mask id="mask-0" style="mask-type:alpha" maskUnits="userSpaceOnUse">
<path     fill="url(#linear_7)"  d="M213.5 197.062L289.5 176.122L289.5 77.0624L213.5 98.0024L213.5 197.062Z">
</path>
<path     fill="url(#linear_8)"  d="M213.5 197.062L289.5 176.122L289.5 77.0624L213.5 98.0024L213.5 197.062Z">
</path>
</mask>
<linearGradient id="linear_9" x1="19.647419242105563%" y1="8.69205665987308%" x2="49.99997639231369%" y2="128.33438127770003%" gradientUnits="objectBoundingBox">
<stop offset="0" stop-color="#CAD4E0"  />
<stop offset="1" stop-color="#C1CCD9" stop-opacity="0.34" />
</linearGradient>
<linearGradient id="linear_10" x1="50%" y1="4.188079557261215%" x2="68.98218322939312%" y2="102.0107652175426%" gradientUnits="objectBoundingBox">
<stop offset="0" stop-color="#E5EBF2"  />
<stop offset="1" stop-color="#CCD4DD"  />
</linearGradient>
<mask id="mask-1" style="mask-type:alpha" maskUnits="userSpaceOnUse">
<path d="M131.5 176.213L213.5 197.062L213.5 97.5539L131.5 80.0624L131.5 176.213Z"   fill="url(#linear_10)" >
</path>
</mask>
<linearGradient id="linear_11" x1="80.35257148128785%" y1="8.692044480136767%" x2="49.999999999999986%" y2="87.3887273469207%" gradientUnits="objectBoundingBox">
<stop offset="0" stop-color="#CAD4E0"  />
<stop offset="1" stop-color="#D5DCE5" stop-opacity="0.34" />
</linearGradient>
<linearGradient id="linear_12" x1="0%" y1="37.87385179781171%" x2="100%" y2="59.219901855044824%" gradientUnits="objectBoundingBox">
<stop offset="0" stop-color="#F6F8FA"  />
<stop offset="1" stop-color="#EBEFF3"  />
</linearGradient>
</defs>
</svg>
