<?xml version="1.0" encoding="UTF-8"?>
<svg width="100px" height="100px" viewBox="0 0 100 100" version="1.1" xmlns="http://www.w3.org/2000/svg" xmlns:xlink="http://www.w3.org/1999/xlink">
    <title>编组 6</title>
    <defs>
        <circle id="path-1" cx="40" cy="40" r="40"></circle>
        <filter x="-20.0%" y="-17.5%" width="140.0%" height="140.0%" filterUnits="objectBoundingBox" id="filter-2">
            <feOffset dx="0" dy="2" in="SourceAlpha" result="shadowOffsetOuter1"></feOffset>
            <feGaussianBlur stdDeviation="5" in="shadowOffsetOuter1" result="shadowBlurOuter1"></feGaussianBlur>
            <feColorMatrix values="0 0 0 0 0   0 0 0 0 0   0 0 0 0 0  0 0 0 0.147018753 0" type="matrix" in="shadowBlurOuter1"></feColorMatrix>
        </filter>
    </defs>
    <g id="页面-1" stroke="none" stroke-width="1" fill="none" fill-rule="evenodd">
        <g id="画板" transform="translate(-333, -20)">
            <g id="编组-6" transform="translate(333, 20)">
                <g id="编组-5" transform="translate(10, 8)">
                    <g id="椭圆形备份-2">
                        <use fill="black" fill-opacity="1" filter="url(#filter-2)" xlink:href="#path-1"></use>
                        <use fill="#FFFFFF" fill-rule="evenodd" xlink:href="#path-1"></use>
                    </g>
                    <g id="cb_icon_erweima-2" transform="translate(19, 19)" fill="#333333" fill-rule="nonzero">
                        <path d="M4.14621057,15.3418821 L11.2859768,15.3418821 C13.5772351,15.3418821 15.4321743,13.4985637 15.4321743,11.2189154 L15.4321743,4.12330612 C15.4283131,1.84512266 13.5804401,0.000339440002 11.3023096,0.000339440002 L4.14621057,0.000339440002 C1.85495228,0.000339440002 1.3021885e-05,1.84365788 1.3021885e-05,4.12330612 L1.3021885e-05,11.2189154 C1.3021885e-05,13.4962304 1.87361833,15.3418821 4.14621057,15.3418821 Z M3.52789749,4.12330612 C3.52789749,3.78964215 3.81255483,3.5073111 4.14621057,3.5073111 L11.2859768,3.5073111 C11.6219658,3.5073111 11.9042898,3.78964215 11.9042898,4.12330612 L11.9042898,11.2189154 C11.8992505,11.5579174 11.624987,11.8311527 11.2859768,11.8349105 L4.14621057,11.8349105 C3.80720032,11.8311527 3.53293683,11.5579174 3.52789749,11.2189154 L3.52789749,4.12330612 Z M11.3023096,26.4064594 L4.14621057,26.4064594 C1.85495228,26.4064594 1.3021885e-05,28.2521111 1.3021885e-05,30.529426 L1.3021885e-05,37.6273687 C1.3021885e-05,39.9046836 1.85495228,41.748002 4.14621057,41.748002 L11.2859768,41.748002 C13.5772351,41.748002 15.4321743,39.9046836 15.4321743,37.6273687 L15.4321743,30.529426 C15.4283131,28.2512426 13.5804401,26.4064594 11.3023096,26.4064594 L11.3023096,26.4064594 Z M11.9042898,37.6273687 C11.8980018,37.9654585 11.6240962,38.2373036 11.2859768,38.2410304 L4.14621057,38.2410304 C3.80809118,38.2373036 3.53418553,37.9654585 3.52789749,37.6273687 L3.52789749,30.529426 C3.52789749,30.1957621 3.81255483,29.913431 4.14621057,29.913431 L11.2859768,29.913431 C11.6219658,29.913431 11.9042898,30.1957621 11.9042898,30.529426 L11.9042898,37.6273687 L11.9042898,37.6273687 Z M37.8524401,0.000339440002 L30.7126739,0.000339440002 C28.4214156,0.000339440002 26.5664763,1.84365788 26.5664763,4.12330612 L26.5664763,11.2189154 C26.5664763,13.4962304 28.4214156,15.3418821 30.7126739,15.3418821 L37.8524401,15.3418821 C40.1436984,15.3418821 41.9986376,13.4985637 41.9986376,11.2189154 L41.9986376,4.12330612 C41.9819947,1.8440834 40.1316642,0.0041201635 37.8524401,0.000339440002 L37.8524401,0.000339440002 Z M38.4544204,11.2189154 C38.449381,11.5579174 38.1751175,11.8311527 37.8361073,11.8349105 L30.6963411,11.8349105 C30.3564207,11.8324113 30.0807591,11.5588157 30.0756947,11.2189154 L30.0756947,4.12330612 C30.0756947,3.78964215 30.3603521,3.5073111 30.6963411,3.5073111 L37.8361073,3.5073111 C38.169763,3.5073111 38.4544204,3.78964215 38.4544204,4.12330612 L38.4544204,11.2189154 L38.4544204,11.2189154 Z" id="形状"></path>
                        <path d="M28.4494147,22.9041543 C28.8934203,22.9073913 29.3198771,22.7309905 29.6318612,22.4150438 C29.9438453,22.0990972 30.1148563,21.6704418 30.1060271,21.2265012 C30.1072686,20.7822038 29.9314858,20.3557121 29.6175456,20.0413263 C29.3036054,19.7269405 28.8773696,19.5505592 28.4330819,19.5511814 L22.58594,19.5511814 L22.58594,12.9782346 C22.5904133,12.5342368 22.4152117,12.1072869 22.100153,11.7944176 C21.7850944,11.4815483 21.3569395,11.3093343 20.9129948,11.3169146 C20.4678974,11.3156674 20.0407044,11.4920941 19.7261908,11.8070534 C19.4116772,12.1220128 19.2358497,12.5494615 19.2377163,12.9945678 L19.2377163,19.5675146 L1.67529149,19.5675146 C1.23059985,19.5662707 0.803763105,19.7423776 0.489317399,20.0568311 C0.174871694,20.3712845 -0.00123087813,20.7981318 6.47670822e-06,21.2428344 C6.47670822e-06,22.1644936 0.737322209,22.9204875 1.67529149,22.9204875 L19.2727152,22.9204875 L19.2727152,30.7674241 C19.2727152,31.6890833 20.0100244,32.4428252 20.9479937,32.4428252 C21.3936423,32.4471536 21.8223228,32.2720636 22.1374594,31.9569192 C22.452596,31.6417748 22.6276817,31.2130838 22.6232721,30.7674241 L22.6232721,22.9204875 L28.4494147,22.9204875 L28.4494147,22.9041543 L28.4494147,22.9041543 Z M40.3326922,23.1374858 C40.7888389,23.130931 41.223002,22.9404141 41.5366737,22.6091616 C41.8503455,22.277909 42.0169325,21.8340047 41.9986376,21.3781667 C41.9986376,20.4098412 41.2589952,19.6165142 40.3163594,19.6165142 L36.5971478,19.6165142 C35.6708448,19.6165142 34.9148696,20.3911746 34.9148696,21.3781667 C34.9148696,22.3464922 35.6545121,23.1374858 36.5971478,23.1374858 L40.3303589,23.1374858 L40.3326922,23.1374858 Z M20.7473336,5.2806301 C21.7203017,5.2806301 22.5182756,4.54330272 22.5182756,3.6053103 L22.5182756,1.65699272 C22.5182756,0.7353335 21.7389678,-0.0183270758 20.7450003,0.000339440001 C19.7720322,0.000339440001 18.9763916,0.7353335 18.9763916,1.67565923 L18.9763916,3.61931019 C18.9927244,4.52463621 19.7720322,5.27829678 20.7473336,5.27829678 L20.7473336,5.2806301 Z M20.7473336,36.7197093 C19.7720322,36.7197093 18.9740583,37.4547034 18.9740583,38.3903625 L18.9740583,40.3270135 C18.9740583,41.2486727 19.7556994,42 20.7473336,42 C21.7389678,42 22.5182756,41.2650059 22.5182756,40.3293468 L22.5182756,38.3740293 C22.5182756,37.4547034 21.7203017,36.717376 20.7450003,36.717376 L20.7473336,36.7197093 Z M38.5454174,37.7253679 C38.5454174,38.0543652 38.2630933,38.3180298 37.9481036,38.3180298 L36.1794949,38.3180298 L36.1794949,41.748002 L37.9481036,41.748002 C40.1810305,41.748002 41.9986376,39.9350167 41.9986376,37.7090347 L41.9986376,35.7117175 L38.5594169,35.7117175 L38.5594169,37.7253679 L38.5430841,37.7253679 L38.5454174,37.7253679 Z M37.8524401,26.4064594 L30.7126739,26.4064594 C28.4260821,26.4064594 26.5664763,28.2567777 26.5664763,30.529426 L26.5664763,37.6273687 C26.5664763,39.8976837 28.4260821,41.748002 30.7103406,41.748002 L32.520948,41.748002 L32.520948,38.2316971 L30.7103406,38.2316971 C30.3773951,38.2266895 30.1087014,37.9579891 30.1036938,37.6250354 L30.1036938,30.529426 C30.1036938,30.1910954 30.3906844,29.9227643 30.7103406,29.9227643 L37.8524401,29.9227643 C38.1907623,29.9227643 38.4614201,30.209762 38.4614201,30.529426 L38.4614201,32.0927467 L41.9986376,32.0927467 L41.9986376,30.529426 C41.9986376,28.2567777 40.1366986,26.4064594 37.8524401,26.4064594 Z" id="形状"></path>
                    </g>
                </g>
            </g>
        </g>
    </g>
</svg>