<?xml version="1.0" encoding="UTF-8"?>
<svg width="100px" height="100px" viewBox="0 0 100 100" version="1.1" xmlns="http://www.w3.org/2000/svg" xmlns:xlink="http://www.w3.org/1999/xlink">
    <title>编组 4</title>
    <defs>
        <circle id="path-1" cx="40" cy="40" r="40"></circle>
        <filter x="-20.0%" y="-17.5%" width="140.0%" height="140.0%" filterUnits="objectBoundingBox" id="filter-2">
            <feOffset dx="0" dy="2" in="SourceAlpha" result="shadowOffsetOuter1"></feOffset>
            <feGaussianBlur stdDeviation="5" in="shadowOffsetOuter1" result="shadowBlurOuter1"></feGaussianBlur>
            <feColorMatrix values="0 0 0 0 0   0 0 0 0 0   0 0 0 0 0  0 0 0 0.147018753 0" type="matrix" in="shadowBlurOuter1"></feColorMatrix>
        </filter>
    </defs>
    <g id="页面-1" stroke="none" stroke-width="1" fill="none" fill-rule="evenodd">
        <g id="画板" transform="translate(-184, -20)">
            <g id="编组-4" transform="translate(184, 20)">
                <g id="编组-3" transform="translate(10, 8)">
                    <g id="椭圆形备份">
                        <use fill="black" fill-opacity="1" filter="url(#filter-2)" xlink:href="#path-1"></use>
                        <use fill="#FFFFFF" fill-rule="evenodd" xlink:href="#path-1"></use>
                    </g>
                    <g id="lianjie" transform="translate(19, 19)" fill="#333333" fill-rule="nonzero">
                        <path d="M26.2105844,16.1835609 C25.8888875,15.8619775 25.5459892,15.5720891 25.19265,15.303295 L25.1920108,15.303881 C24.8283372,14.9541185 24.3345253,14.7386997 23.790107,14.7386997 C22.6727178,14.7386997 21.7669698,15.6444813 21.7669698,16.761793 C21.7669698,17.2561801 21.9445717,17.7090176 22.2392074,18.0604314 L22.2391541,18.0604314 C22.2392074,18.0604847 22.239314,18.0605913 22.2394205,18.0606445 C22.3809586,18.2294531 22.5493447,18.3749833 22.7383996,18.4902036 C22.929159,18.6475061 23.1164027,18.8024116 23.2915009,18.9775059 L23.4582889,19.1443436 C25.5550984,21.2384974 24.9291238,24.8464953 22.8323144,26.9433125 L13.8847838,35.8879854 C11.7880277,37.9821392 8.37918073,37.9821392 6.28231804,35.8879854 L6.11419829,35.7197627 C4.01728229,33.6230521 4.01728229,30.2117756 6.11419829,28.1201255 L10.0671439,24.1685975 C10.5743265,23.7660456 10.8999121,23.1447191 10.8999121,22.4470052 C10.8999121,21.2334369 9.91612372,20.2496699 8.70252904,20.2496699 C8.24456781,20.2496699 7.81947405,20.3898732 7.46746662,20.6295293 C7.46634798,20.6271855 7.46517603,20.6249482 7.46400407,20.6225511 L7.4218676,20.66197 C7.26626627,20.7738343 7.12558047,20.9050352 7.00407182,21.0529092 L2.89611087,24.8967811 C-0.965370288,28.7608418 -0.965370288,35.0805379 2.89611087,38.9392185 L3.06289891,39.1059496 C6.92438006,42.9646835 13.2414967,42.9646835 17.1029778,39.1059496 L26.0478449,30.1586133 C29.9039991,26.2974291 30.2309697,20.2064157 26.3748688,16.3476818 L26.2105844,16.1835609 Z" id="路径"></path>
                        <path d="M39.104242,3.06283239 L38.9374539,2.89604797 C35.076026,-0.965349322 28.7589094,-0.965349322 24.8974283,2.89604797 L15.9525612,11.843331 C12.0910801,15.7047283 11.8784267,21.2807928 15.7399078,25.1446938 L15.9040324,25.3063111 C16.0793968,25.4816185 16.26142,25.6469114 16.4472254,25.8054391 C16.5817319,25.955657 16.7397304,26.0842477 16.9153612,26.1859377 C16.916693,26.1870031 16.918078,26.1881218 16.9194097,26.1891871 L16.9199957,26.1886544 C17.199929,26.3496325 17.5242894,26.4422136 17.8704371,26.4422136 C18.9252874,26.4422136 19.7803757,25.5870374 19.7803757,24.5323165 C19.7803757,24.2345975 19.7121903,23.9528059 19.5906284,23.7015906 L19.5906284,23.7015906 C19.3381291,23.1346514 18.8654653,22.7895233 18.538548,22.4625598 L18.3743702,22.301049 C16.277614,20.2043384 17.0738391,17.1581658 19.1705953,15.0614551 L28.1207361,6.11672902 C30.2123251,4.01991182 33.622344,4.01991182 35.7192066,6.11672902 L35.8861012,6.28084997 C37.9829107,8.37772042 37.9829107,11.7903286 35.8861012,13.8844824 L31.9461002,17.8270612 C31.4100986,18.2241797 31.0625125,18.8611672 31.0625125,19.5793895 C31.0625125,20.7831031 32.0383637,21.7589864 33.2421567,21.7589864 C33.6611244,21.7589864 34.0523385,21.6405167 34.3845295,21.4356451 C34.3870332,21.4399066 34.3893771,21.4438485 34.3918807,21.4481633 L34.4529813,21.3917517 C34.6412371,21.2657179 34.8084513,21.1109722 34.9490305,20.9340667 L39.1014185,17.1026065 C42.9657231,13.2412623 42.9657231,6.92417637 39.104242,3.06283239 Z" id="路径"></path>
                    </g>
                </g>
            </g>
        </g>
    </g>
</svg>