<svg width="148" height="39" viewBox="0 0 148 39" fill="none" xmlns="http://www.w3.org/2000/svg">
<g id="image_logo" clip-path="url(#clip0_1852_6292)">
<path id="Vector" d="M28.5596 0H9.76713C4.3729 0 0 4.44972 0 9.93872V29.0613C0 34.5503 4.3729 39 9.76713 39H28.5596C33.9538 39 38.3267 34.5503 38.3267 29.0613V9.93872C38.3267 4.44972 33.9538 0 28.5596 0Z" fill="#FD5F00"/>
<path id="Vector_2" d="M45.5659 4.44876H56.0609C56.0609 4.44876 56.1772 9.23354 52.4634 14.6123H56.0609C56.0609 14.6123 58.619 32.483 45.5659 35.538V30.7035C45.5659 30.7035 51.9146 30.1664 51.9146 19.0965H45.5659V14.8205C46.3149 14.8048 47.0449 14.5779 47.6747 14.1652C48.3045 13.7524 48.8094 13.1699 49.1332 12.4826L50.8541 9.07736H45.5659V4.44876Z" fill="#FD5F00"/>
<path id="Vector_3" d="M45.5659 21.683H49.7774C49.7774 21.683 50.0402 25.3745 51.8029 26.5719L48.503 30.1593C48.503 30.1593 45.5659 26.5719 45.5659 21.683Z" fill="#FD5F00"/>
<path id="Vector_4" d="M58.5703 4.50555H77.6395V15.1542C77.6395 15.1542 77.9464 18.912 73.9187 18.912H58.5703V14.8418H73.035V7.95571H58.5703V4.50555Z" fill="#FD5F00"/>
<path id="Vector_5" d="M79.188 9.54117H56.6934V13.2777H79.188V9.54117Z" fill="#FD5F00"/>
<path id="Vector_6" d="M77.6486 20.3815H58.5771V23.8719H77.6486V20.3815Z" fill="#FD5F00"/>
<path id="Vector_7" d="M78.5652 25.5H57.6821V28.7869H78.5652V25.5Z" fill="#FD5F00"/>
<path id="Vector_8" d="M68.8143 3.25375H64.0005V29.8588H68.8143V3.25375Z" fill="#FD5F00"/>
<path id="Vector_9" d="M119.587 3.33658H114.422V35.635H119.587V3.33658Z" fill="#FD5F00"/>
<path id="Vector_10" d="M148 3.33658H142.835V35.635H148V3.33658Z" fill="#FD5F00"/>
<path id="Vector_11" d="M148 8.21129V3.33658L116.357 3.33658V8.21129L148 8.21129Z" fill="#FD5F00"/>
<path id="Vector_12" d="M145.742 35.6327V30.758H138.961V35.6327H145.742Z" fill="#FD5F00"/>
<path id="Vector_13" d="M120.877 10.0381H124.873C124.873 10.0381 124.752 19.1794 127.982 21.6167C127.982 21.6167 126.691 24.6646 125.398 25.2751C125.398 25.2751 121.524 21.0015 120.877 10.0381Z" fill="#FD5F00"/>
<path id="Vector_14" d="M132.289 10.0381H136.284C136.284 10.0381 136.163 19.1794 139.394 21.6167C139.394 21.6167 138.1 24.6646 136.81 25.2751C136.798 25.2751 132.924 21.0015 132.289 10.0381Z" fill="#FD5F00"/>
<path id="Vector_15" d="M126.577 10.0381H130.179C130.179 10.0381 130.566 26.4536 120.877 30.1285V25.7768C120.877 25.7768 126.577 21.0015 126.577 10.0381Z" fill="#FD5F00"/>
<path id="Vector_16" d="M137.668 10.0381H141.542C141.542 10.0381 143.479 22.8354 132.18 30.5071V25.2751C132.18 25.2751 138.961 21.0015 137.668 10.0381Z" fill="#FD5F00"/>
<path id="Vector_17" d="M127.947 24.1298C127.527 25.2465 126.879 26.2596 126.045 27.1019C126.045 27.1019 129.273 30.1498 130.566 30.758V25.8833C130.566 25.8833 128.591 24.9249 127.947 24.1298Z" fill="#FD5F00"/>
<path id="Vector_18" d="M139.605 23.3205C139.605 23.3205 138.961 25.5709 137.668 26.792C137.668 26.792 140.459 29.4257 141.754 30.0362V25.1615C141.754 25.1615 140.252 24.1156 139.605 23.3205Z" fill="#FD5F00"/>
<path id="Vector_19" d="M102.962 25.1331C102.062 26.1861 100.094 27.4853 96.7572 27.4853C89.4993 27.4853 89.7807 21.3114 89.7807 21.3114H109.745C109.745 21.3114 111.643 7.3499 98.0456 6.40336C84.4483 5.45681 83.1855 16.3563 83.1855 18.9285C83.1855 23.4246 84.4506 33.2805 96.4828 33.2805C105.455 33.2805 108.387 28.1171 109.334 25.1236L102.962 25.1331ZM96.8107 11.0769C103.824 11.0769 103.824 18.034 103.824 18.034H89.7947C89.7947 18.034 89.7946 11.0769 96.8107 11.0769Z" fill="#FD5F00"/>
<path id="Vector_20" d="M59.6681 30.8668C59.6681 30.8668 56.3054 30.7603 54.5078 29.6411C53.8976 30.8773 53.0968 32.0062 52.1358 32.9847L52.0288 33.148C52.0288 33.148 52.959 34.0638 54.9659 34.8044C56.3437 35.2994 57.7954 35.5476 59.2565 35.538H79.0582V30.8668H59.6681Z" fill="#FD5F00"/>
<g id="Vector_21">
<path d="M17.3924 6.32726L9.84847 10.104L8.98571 14.903L17.5645 11.0174L17.3924 6.32726Z" fill="white"/>
<path d="M22.1016 23.507L31.3618 29.2644L30.6873 24.9316L25.1852 21.5217L29.6037 20.0616L27.9409 10.2909L20.7528 3.79999L21.3365 13.4074L8.49038 18.9281L7.40902 25.5681L21.9667 19.5197L22.1016 23.507Z" fill="white"/>
<path d="M6.96484 29.6667L16.9087 34.1391L31.3618 29.2715L22.1016 23.5118L6.96484 29.6667Z" fill="white"/>
<path d="M22.076 22.7806L22.1016 23.5118L21.2225 23.8691L30.3827 29.6004L31.3618 29.2715L31.1687 28.0647L22.076 22.7806Z" fill="white"/>
</g>
</g>
<defs>
<clipPath id="clip0_1852_6292">
<rect width="148" height="39" fill="white"/>
</clipPath>
</defs>
</svg>
