<?xml version="1.0" encoding="UTF-8"?>
<svg width="100px" height="100px" viewBox="0 0 100 100" version="1.1" xmlns="http://www.w3.org/2000/svg" xmlns:xlink="http://www.w3.org/1999/xlink">
    <title>编组 7</title>
    <defs>
        <linearGradient x1="50%" y1="0%" x2="50%" y2="100%" id="linearGradient-1">
            <stop stop-color="#14C2C0" offset="0%"></stop>
            <stop stop-color="#1AE1D3" offset="100%"></stop>
        </linearGradient>
    </defs>
    <g id="页面-1" stroke="none" stroke-width="1" fill="none" fill-rule="evenodd">
        <g id="画板" transform="translate(-35, -151)">
            <g id="编组-7" transform="translate(35, 151)">
                <circle id="椭圆形" fill="url(#linearGradient-1)" cx="50" cy="50" r="50"></circle>
                <g id="lianjie备份" transform="translate(25, 25)" fill="#FFFFFF" fill-rule="nonzero">
                    <path d="M31.2030766,19.2661439 C30.8201042,18.8833066 30.4118919,18.5382013 29.99125,18.2182084 L29.990489,18.2189059 C29.5575443,17.802522 28.969673,17.5460711 28.321556,17.5460711 C26.9913307,17.5460711 25.9130593,18.6243825 25.9130593,19.9545154 C25.9130593,20.5430715 26.1244901,21.0821638 26.4752469,21.5005136 L26.4751835,21.5005136 C26.4752469,21.500577 26.4753738,21.5007039 26.4755006,21.5007673 C26.6439984,21.7017299 26.844458,21.8749801 27.0695233,22.0121471 C27.2966179,22.1994121 27.5195271,22.3838234 27.7279772,22.592269 L27.9265344,22.7908853 C30.4227362,25.2839255 29.6775284,29.5791611 27.1813267,32.075372 L16.5295046,42.7237921 C14.0333663,45.2168323 9.97521516,45.2168323 7.47895005,42.7237921 L7.27880748,42.523527 C4.78247892,40.0274429 4.78247892,35.9663995 7.27880748,33.4763398 L11.9846951,28.7721398 C12.5884839,28.2929115 12.9760858,27.5532371 12.9760858,26.7226253 C12.9760858,25.2779011 11.8049092,24.1067499 10.3601536,24.1067499 C9.81496168,24.1067499 9.30889767,24.2736586 8.88984122,24.5589635 C8.8885095,24.5561732 8.88711432,24.5535098 8.88571914,24.5506561 L8.83555667,24.5975833 C8.65031699,24.7307552 8.48283389,24.8869467 8.33818074,25.0629872 L3.44775103,29.6390251 C-1.14925034,34.2390974 -1.14925034,41.7625451 3.44775103,46.3562125 L3.64630823,46.5547019 C8.2433096,51.1484327 15.7636865,51.1484327 20.3606879,46.5547019 L31.0093392,35.9031111 C35.5999989,31.3064632 35.9892496,24.0552568 31.3986533,19.461526 L31.2030766,19.2661439 Z" id="路径"></path>
                    <path d="M46.552669,3.64622903 L46.3541118,3.44767615 C41.7571738,-1.14922538 34.2367969,-1.14922538 29.6397956,3.44767615 L18.9911443,14.0992035 C14.3941429,18.6961051 14.1409841,25.3342772 18.7379855,29.9341593 L18.9333718,30.1265608 C19.1421391,30.3352602 19.3588334,30.5320374 19.5800303,30.7207609 C19.740157,30.8995916 19.9282504,31.0526759 20.1373348,31.1737354 C20.1389202,31.1750037 20.1405691,31.1763354 20.1421544,31.1776037 L20.142852,31.1769696 C20.4761059,31.3686102 20.8622492,31.4788258 21.2743298,31.4788258 C22.5301041,31.4788258 23.5480663,30.4607588 23.5480663,29.2051386 C23.5480663,28.8507113 23.4668932,28.5152451 23.3221766,28.2161792 L23.3221766,28.2161792 C23.0215823,27.5412517 22.4588873,27.1303848 22.0697,26.7411426 L21.8742502,26.5488679 C19.3781119,24.0527838 20.3259989,20.4263878 22.8221372,17.9303037 L33.4770668,7.28182026 C35.9670537,4.78560931 40.0265999,4.78560931 42.522865,7.28182026 L42.721549,7.47720234 C45.2177508,9.97347669 45.2177508,14.0361055 42.721549,16.5291457 L38.0310717,21.222692 C37.3929745,21.695452 36.9791816,22.4537704 36.9791816,23.3087971 C36.9791816,24.7417894 38.1409091,25.9035552 39.5739961,25.9035552 C40.0727671,25.9035552 40.5384982,25.7625199 40.9339637,25.5186252 C40.9369442,25.5236983 40.9397346,25.5283911 40.9427152,25.5335277 L41.0154539,25.4663711 C41.2395679,25.3163308 41.4386324,25.1321098 41.6059887,24.921508 L46.5493078,20.3602458 C51.1496704,15.7634075 51.1496704,8.24306711 46.552669,3.64622903 Z" id="路径"></path>
                </g>
            </g>
        </g>
    </g>
</svg>