<?xml version="1.0" encoding="UTF-8"?>
<svg width="100px" height="100px" viewBox="0 0 100 100" version="1.1" xmlns="http://www.w3.org/2000/svg" xmlns:xlink="http://www.w3.org/1999/xlink">
    <title>编组 8</title>
    <defs>
        <linearGradient x1="50%" y1="0%" x2="50%" y2="100%" id="linearGradient-1">
            <stop stop-color="#EE4119" offset="0%"></stop>
            <stop stop-color="#FA603D" offset="100%"></stop>
        </linearGradient>
    </defs>
    <g id="页面-1" stroke="none" stroke-width="1" fill="none" fill-rule="evenodd">
        <g id="画板" transform="translate(-184, -151)">
            <g id="编组-8" transform="translate(184, 151)">
                <circle id="椭圆形备份-3" fill="url(#linearGradient-1)" cx="50" cy="50" r="50"></circle>
                <g id="suo" transform="translate(27, 24)" fill="#FFFFFF" fill-rule="nonzero" stroke="#FFFFFF">
                    <path d="M38.9230769,17.8318679 L35.4412308,17.8318679 L35.4412308,12.3847309 C35.4412308,5.55793838 29.8716923,0 23.0212308,0 C16.1707692,0 10.6012308,5.55793838 10.6012308,12.3847309 L10.6012308,17.8318679 L7.07692308,17.8318679 C3.17046154,17.8318679 0,21.0343842 0,24.9803417 L0,42.8515262 C0,46.7974837 3.17046154,50 7.07692308,50 L38.9230769,50 C42.8330769,50 46,46.7974837 46,42.8515262 L46,24.9803417 C46,21.0343842 42.8366154,17.8318679 38.9230769,17.8318679 Z M14.1467692,12.3847309 C14.1467692,7.50947173 18.1275385,3.53849453 23.0176923,3.53849453 C27.9149231,3.53849453 31.8886154,7.50589749 31.8886154,12.3847309 L31.8886154,17.8318679 L14.1467692,17.8318679 L14.1467692,12.3847309 Z M42.4615385,42.8515262 C42.4615385,44.8280792 40.8798462,46.4257631 38.9230769,46.4257631 L7.07692308,46.4257631 C5.12369231,46.4257631 3.53846154,44.8280792 3.53846154,42.8515262 L3.53846154,24.9803417 C3.53846154,23.0037887 5.12369231,21.4061048 7.07692308,21.4061048 L38.9230769,21.4061048 C40.8798462,21.4061048 42.4615385,23.0037887 42.4615385,24.9803417 L42.4615385,42.8515262 Z M23,24.9803417 C20.0666154,24.9803417 17.6923077,27.3822289 17.6923077,30.341697 C17.6923077,32.6720995 19.1749231,34.6343556 21.2307692,35.3742226 L21.2307692,41.0644077 C21.2307692,42.0508971 22.0233846,42.8515262 23,42.8515262 C23.9766154,42.8515262 24.7692308,42.0508971 24.7692308,41.0644077 L24.7692308,35.3742226 C26.8250769,34.6343556 28.3076923,32.6720995 28.3076923,30.341697 C28.3076923,27.3822289 25.9333846,24.9803417 23,24.9803417 Z" id="形状"></path>
                </g>
            </g>
        </g>
    </g>
</svg>