<?xml version="1.0" encoding="UTF-8"?>
<svg width="100px" height="100px" viewBox="0 0 100 100" version="1.1" xmlns="http://www.w3.org/2000/svg" xmlns:xlink="http://www.w3.org/1999/xlink">
    <title>编组 2</title>
    <defs>
        <circle id="path-1" cx="40" cy="40" r="40"></circle>
        <filter x="-20.0%" y="-17.5%" width="140.0%" height="140.0%" filterUnits="objectBoundingBox" id="filter-2">
            <feOffset dx="0" dy="2" in="SourceAlpha" result="shadowOffsetOuter1"></feOffset>
            <feGaussianBlur stdDeviation="5" in="shadowOffsetOuter1" result="shadowBlurOuter1"></feGaussianBlur>
            <feColorMatrix values="0 0 0 0 0   0 0 0 0 0   0 0 0 0 0  0 0 0 0.147018753 0" type="matrix" in="shadowBlurOuter1"></feColorMatrix>
        </filter>
    </defs>
    <g id="页面-1" stroke="none" stroke-width="1" fill="none" fill-rule="evenodd">
        <g id="画板" transform="translate(-35, -20)">
            <g id="编组-2" transform="translate(35, 20)">
                <g id="编组" transform="translate(10, 8)">
                    <g id="椭圆形">
                        <use fill="black" fill-opacity="1" filter="url(#filter-2)" xlink:href="#path-1"></use>
                        <use fill="#FFFFFF" fill-rule="evenodd" xlink:href="#path-1"></use>
                    </g>
                    <path d="M47.4317286,33.2870732 C47.9149731,33.2870732 48.3915517,33.3225788 48.863489,33.3741017 C47.5776845,27.4227864 41.1741897,23 33.8656298,23 C25.6940736,23 19,28.535661 19,35.5642957 C19,39.6207687 21.2275559,42.9524501 24.948543,45.5365288 L23.4619751,49.9817294 L28.6581242,47.3913033 C30.5186177,47.7565257 32.0096789,48.1331536 33.8656298,48.1331536 C34.3318889,48.1331536 34.7935559,48.1103427 35.2530011,48.073746 C34.9622743,47.0868273 34.793556,46.0518569 34.793556,44.9790006 C34.7936053,38.5251015 40.370494,33.2870732 47.4317286,33.2870732 Z M39.4402472,29.2810321 C40.5597034,29.2810321 41.3006914,30.013758 41.3006914,31.1254921 C41.3006914,32.2326143 40.5597034,32.9745142 39.4402472,32.9745142 C38.3252843,32.9745142 37.2080994,32.2326143 37.2080994,31.1254921 C37.2080994,30.013758 38.3253336,29.2810321 39.4402472,29.2810321 Z M29.0365925,32.9744646 C27.9216295,32.9744646 26.7975813,32.2325647 26.7975813,31.1254424 C26.7975813,30.0137084 27.9216295,29.2809825 29.0365925,29.2809825 C30.150321,29.2809825 30.892494,30.0137084 30.892494,31.1254424 C30.892494,32.2326143 30.150321,32.9744646 29.0365925,32.9744646 Z M61,44.8015218 C61,38.894886 55.0525927,34.0804959 48.373332,34.0804959 C41.3006914,34.0804959 35.7306661,38.8948861 35.7306661,44.8015218 C35.7306661,50.7167364 41.3006915,55.520812 48.373332,55.520812 C49.8530366,55.520812 51.3464678,55.1520688 52.832937,54.7811932 L56.9108643,57 L55.792445,53.308799 C58.7770855,51.0830993 61,48.1331535 61,44.8015218 Z M44.2738272,42.9524501 C43.5340243,42.9524501 42.7873087,42.2208647 42.7873087,41.474353 C42.7873087,40.7382055 43.5340243,39.9974461 44.2738272,39.9974461 C45.3978754,39.9974461 46.1343208,40.7382055 46.1343208,41.474353 C46.1343208,42.2208647 45.3978754,42.9524501 44.2738272,42.9524501 Z M52.4499261,42.9524501 C51.7158508,42.9524501 50.9736778,42.2208647 50.9736778,41.474353 C50.9736778,40.7382055 51.7158508,39.9974461 52.4499261,39.9974461 C53.5648891,39.9974461 54.3104197,40.7382055 54.3104197,41.474353 C54.3104197,42.2208647 53.5648891,42.9524501 52.4499261,42.9524501 Z" id="形状" fill="#333333" fill-rule="nonzero"></path>
                </g>
            </g>
        </g>
    </g>
</svg>