<?xml version="1.0" encoding="UTF-8"?>
<svg width="80px" height="80px" viewBox="0 0 80 80" version="1.1" xmlns="http://www.w3.org/2000/svg" xmlns:xlink="http://www.w3.org/1999/xlink">
    <title>icon_zhiding</title>
    <g id="页面-1" stroke="none" stroke-width="1" fill="none" fill-rule="evenodd">
        <g id="画板" transform="translate(-483, -30)">
            <g id="编组-5" transform="translate(482.9651, 30)">
                <circle id="椭圆形备份-2" fill="#FFFFFF" cx="40" cy="40" r="40"></circle>
                <g id="zhiding" transform="translate(23.0349, 19)" fill="#272636" fill-rule="nonzero">
                    <path d="M18.359394,40.2581354 C18.0946732,42.6876852 14.7352852,42.471033 14.6052462,40.2581354 C14.6018659,38.5752437 14.6018659,13.8652061 14.6018659,13.8652061 L3.04212091,25.1386921 C1.2309014,26.7150889 -0.926043389,24.1954217 0.421588921,22.5373843 C5.54128859,17.5214229 14.728321,8.546343 14.9408307,8.33874372 C15.7883851,7.40839429 17.1226593,7.36020821 18.0247055,8.33874372 C19.7110582,9.98628804 32.2259973,22.1785194 32.6058919,22.6172144 C33.8752077,24.2114289 31.8229701,26.570613 30.0709666,25.2414836 C29.6183755,24.8534437 18.3628557,13.8647534 18.3628557,13.8647534 M0.388559911,0 L32.4192841,0 L32.4192841,3.6740757 L0.388559911,3.6740757 L0.388559911,0 Z" id="形状"></path>
                </g>
            </g>
        </g>
    </g>
</svg>